name Walk8.mot
datacolumns 19
datarows 30
range 1.90500000 2.05000000
endheader

                time	   L_ground_force_vx	   L_ground_force_vy	   L_ground_force_vz	   L_ground_force_px	   L_ground_force_py	   L_ground_force_pz	   R_ground_force_vx	   R_ground_force_vy	   R_ground_force_vz	   R_ground_force_px	   R_ground_force_py	   R_ground_force_pz	   L_ground_torque_x	   L_ground_torque_y	   L_ground_torque_z	   R_ground_torque_x	   R_ground_torque_y	   R_ground_torque_z	
          1.90500000	          0.07642120	          0.24332425	         -0.00440774	         -0.00009863	          0.00000000	         -0.00002083	         -9.85999121	        505.42955131	        -31.72991493	          0.29156886	          0.00000000	          0.11198978	          0.00000000	         -0.00034216	          0.00000000	          0.00000000	          0.27306369	          0.00000000	
          1.91000000	          0.06111477	          0.20565812	         -0.00318819	         -0.00013860	          0.00000000	         -0.00003654	         -8.90515565	        506.37740899	        -30.92401759	          0.29350688	          0.00000000	          0.11169013	          0.00000000	         -0.00021066	          0.00000000	          0.00000000	          0.33306913	          0.00000000	
          1.91500000	          0.04646562	          0.16523849	         -0.00215397	         -0.00015327	          0.00000000	         -0.00004372	         -8.08971933	        508.11822291	        -30.30699526	          0.29558094	          0.00000000	          0.11139465	          0.00000000	         -0.00010967	          0.00000000	          0.00000000	          0.40321239	          0.00000000	
          1.92000000	          0.03339653	          0.12624980	         -0.00132040	         -0.00015056	          0.00000000	         -0.00004487	         -7.38850583	        510.58115958	        -29.91090651	          0.29778841	          0.00000000	          0.11110762	          0.00000000	         -0.00003624	          0.00000000	          0.00000000	          0.48196243	          0.00000000	
          1.92500000	          0.02237432	          0.09126227	         -0.00068141	         -0.00013691	          0.00000000	         -0.00004206	         -6.77265617	        513.70108944	        -29.75733344	          0.30012356	          0.00000000	          0.11083283	          0.00000000	          0.00001372	          0.00000000	          0.00000000	          0.56750689	          0.00000000	
          1.93000000	          0.01353645	          0.06160771	         -0.00021775	         -0.00011733	          0.00000000	         -0.00003693	         -6.21152318	        517.41178607	        -29.85686410	          0.30257755	          0.00000000	          0.11057267	          0.00000000	          0.00004467	          0.00000000	          0.00000000	          0.65787146	          0.00000000	
          1.93500000	          0.00679832	          0.03771839	          0.00009680	         -0.00009549	          0.00000000	         -0.00003072	         -5.67495508	        521.64203969	        -30.20788774	          0.30513896	          0.00000000	          0.11032841	          0.00000000	          0.00006099	          0.00000000	          0.00000000	          0.75094059	          0.00000000	
          1.94000000	          0.00193963	          0.01941556	          0.00029087	         -0.00007394	          0.00000000	         -0.00002431	         -5.13401384	        526.31434914	        -30.79691766	          0.30779468	          0.00000000	          0.11009999	          0.00000000	          0.00006663	          0.00000000	          0.00000000	          0.84495877	          0.00000000	
          1.94500000	         -0.00132956	          0.00614277	          0.00039231	         -0.00005427	          0.00000000	         -0.00001827	         -4.56091407	        531.34704065	        -31.60148662	          0.31053211	          0.00000000	          0.10988451	          0.00000000	          0.00006497	          0.00000000	          0.00000000	          0.93868239	          0.00000000	
          1.95000000	         -0.00332087	         -0.00285463	          0.00042634	         -0.00003736	          0.00000000	         -0.00001296	         -3.93128648	        536.66093836	        -32.59091778	          0.31333986	          0.00000000	          0.10967741	          0.00000000	          0.00005878	          0.00000000	          0.00000000	          1.03110178	          0.00000000	
          1.95500000	         -0.00433522	         -0.00839872	          0.00041444	         -0.00002357	          0.00000000	         -0.00000853	         -3.22740934	        542.18454745	        -33.72628266	          0.31620898	          0.00000000	          0.10947157	          0.00000000	          0.00005015	          0.00000000	          0.00000000	          1.12136076	          0.00000000	
          1.96000000	         -0.00464284	         -0.01128980	          0.00037404	         -0.00001285	          0.00000000	         -0.00000501	         -2.43945088	        547.86092786	        -34.96137189	          0.31913396	          0.00000000	          0.10925744	          0.00000000	          0.00004066	          0.00000000	          0.00000000	          1.20928400	          0.00000000	
          1.96500000	         -0.00447292	         -0.01225091	          0.00031854	         -0.00000497	          0.00000000	         -0.00000236	         -1.56513452	        553.65325190	        -36.24594960	          0.32211136	          0.00000000	          0.10902544	          0.00000000	          0.00003135	          0.00000000	          0.00000000	          1.29528838	          0.00000000	
          1.97000000	         -0.00401020	         -0.01189835	          0.00025776	          0.00000048	          0.00000000	         -0.00000047	         -0.60873589	        559.54496283	        -37.52991455	          0.32513731	          0.00000000	          0.10876665	          0.00000000	          0.00002290	          0.00000000	          0.00000000	          1.38012238	          0.00000000	
          1.97500000	         -0.00339631	         -0.01073124	          0.00019840	          0.00000394	          0.00000000	          0.00000078	          0.41811142	        565.53770976	        -38.76590440	          0.32820826	          0.00000000	          0.10847248	          0.00000000	          0.00001568	          0.00000000	          0.00000000	          1.46468630	          0.00000000	
          1.98000000	         -0.00273402	         -0.00913409	          0.00014464	          0.00000584	          0.00000000	          0.00000152	          1.49714999	        571.64947373	        -39.91277361	          0.33132307	          0.00000000	          0.10813461	          0.00000000	          0.00000980	          0.00000000	          0.00000000	          1.55010073	          0.00000000	
          1.98500000	         -0.00209308	         -0.00738747	          0.00009873	          0.00000660	          0.00000000	          0.00000187	          2.60553540	        577.91076866	        -40.93846591	          0.33448187	          0.00000000	          0.10774609	          0.00000000	          0.00000526	          0.00000000	          0.00000000	          1.63773953	          0.00000000	
          1.99000000	         -0.00151652	         -0.00568314	          0.00006147	          0.00000657	          0.00000000	          0.00000195	          3.71752346	        584.35982373	        -41.82160106	          0.33768543	          0.00000000	          0.10730168	          0.00000000	          0.00000193	          0.00000000	          0.00000000	          1.72906379	          0.00000000	
          1.99500000	         -0.00102685	         -0.00414071	          0.00003272	          0.00000603	          0.00000000	          0.00000184	          4.80728919	        591.03916504	        -42.55151535	          0.34093328	          0.00000000	          0.10679743	          0.00000000	         -0.00000036	          0.00000000	          0.00000000	          1.82510830	          0.00000000	
          2.00000000	         -0.00063162	         -0.00282411	          0.00001170	          0.00000520	          0.00000000	          0.00000163	          5.85384983	        597.99621534	        -43.12723963	          0.34422298	          0.00000000	          0.10623076	          0.00000000	         -0.00000180	          0.00000000	          0.00000000	          1.92619871	          0.00000000	
          2.00500000	         -0.00032821	         -0.00175644	         -0.00000271	          0.00000426	          0.00000000	          0.00000137	          6.84641334	        605.28213587	        -43.55551256	          0.34754944	          0.00000000	          0.10560204	          0.00000000	         -0.00000258	          0.00000000	          0.00000000	          2.03211277	          0.00000000	
          2.01000000	         -0.00010769	         -0.00093285	         -0.00001174	          0.00000332	          0.00000000	          0.00000109	          7.78618284	        612.94692144	        -43.84895782	          0.35090421	          0.00000000	          0.10491487	          0.00000000	         -0.00000287	          0.00000000	          0.00000000	          2.14186225	          0.00000000	
          2.01500000	          0.00004225	         -0.00033093	         -0.00001660	          0.00000246	          0.00000000	          0.00000082	          8.68539144	        621.03006751	        -44.02543706	          0.35427425	          0.00000000	          0.10417520	          0.00000000	         -0.00000284	          0.00000000	          0.00000000	          2.25355785	          0.00000000	
          2.02000000	          0.00013506	          0.00008125	         -0.00001840	          0.00000171	          0.00000000	          0.00000059	          9.56465508	        629.55081627	        -44.10680505	          0.35764362	          0.00000000	          0.10339136	          0.00000000	         -0.00000259	          0.00000000	          0.00000000	          2.36456988	          0.00000000	
          2.02500000	          0.00018390	          0.00033915	         -0.00001810	          0.00000109	          0.00000000	          0.00000039	         10.44985867	        638.50300984	        -44.11822315	          0.36099514	          0.00000000	          0.10257394	          0.00000000	         -0.00000222	          0.00000000	          0.00000000	          2.47170792	          0.00000000	
          2.03000000	          0.00020067	          0.00047771	         -0.00001648	          0.00000061	          0.00000000	          0.00000023	         11.36911537	        647.85570224	        -44.08732945	          0.36431214	          0.00000000	          0.10173510	          0.00000000	         -0.00000182	          0.00000000	          0.00000000	          2.57120331	          0.00000000	
          2.03500000	          0.00019555	          0.00052878	         -0.00001413	          0.00000025	          0.00000000	          0.00000012	         12.34999153	        657.55443337	        -44.04290894	          0.36758084	          0.00000000	          0.10088642	          0.00000000	         -0.00000141	          0.00000000	          0.00000000	          2.65872930	          0.00000000	
          2.04000000	          0.00017681	          0.00051972	         -0.00001151	          0.00000001	          0.00000000	          0.00000003	         13.41847949	        667.52888838	        -44.01365185	          0.37079017	          0.00000000	          0.10003839	          0.00000000	         -0.00000104	          0.00000000	          0.00000000	          2.72955233	          0.00000000	
          2.04500000	          0.00015080	          0.00047280	         -0.00000892	         -0.00000015	          0.00000000	         -0.00000003	         14.59807986	        677.69861967	        -44.02634260	          0.37392895	          0.00000000	          0.09920015	          0.00000000	         -0.00000072	          0.00000000	          0.00000000	          2.77909433	          0.00000000	
          2.05000000	          0.00012220	          0.00040532	         -0.00000655	         -0.00000025	          0.00000000	         -0.00000006	         15.90909319	        687.97547379	        -44.10336483	          0.37698439	          0.00000000	          0.09837860	          0.00000000	         -0.00000045	          0.00000000	          0.00000000	          2.80344170	          0.00000000	
